<svg xmlns="http://www.w3.org/2000/svg" viewBox="0 0 1200 720" role="img" aria-labelledby="title desc">
  <title id="title">Retail sales dashboard preview</title>
  <desc id="desc">A dark analytics dashboard preview with KPI cards and charts.</desc>
  <defs>
    <linearGradient id="bg" x1="0" y1="0" x2="1" y2="1">
      <stop offset="0%" stop-color="#0a2540" />
      <stop offset="100%" stop-color="#071523" />
    </linearGradient>
    <linearGradient id="panel" x1="0" y1="0" x2="1" y2="1">
      <stop offset="0%" stop-color="#15324f" />
      <stop offset="100%" stop-color="#0d2236" />
    </linearGradient>
    <linearGradient id="accent" x1="0" y1="0" x2="1" y2="0">
      <stop offset="0%" stop-color="#31a6ff" />
      <stop offset="100%" stop-color="#1f7ef0" />
    </linearGradient>
    <filter id="glow" x="-20%" y="-20%" width="140%" height="140%">
      <feDropShadow dx="0" dy="0" stdDeviation="10" flood-color="#1f7ef0" flood-opacity="0.35" />
    </filter>
  </defs>
  <rect width="1200" height="720" rx="34" fill="url(#bg)" />
  <text x="600" y="72" fill="#f8fafc" font-family="Arial, sans-serif" font-size="34" font-weight="700" text-anchor="middle">Retail Sales Performance Dashboard</text>
  <text x="600" y="110" fill="#dbeafe" font-family="Arial, sans-serif" font-size="19" font-weight="600" text-anchor="middle">Analysis of customer and sales performance (2023-2025)</text>

  <g filter="url(#glow)">
    <rect x="34" y="138" width="218" height="108" rx="24" fill="url(#panel)" stroke="#2857ff" stroke-opacity="0.18" />
    <rect x="270" y="138" width="218" height="108" rx="24" fill="url(#panel)" stroke="#2857ff" stroke-opacity="0.18" />
    <rect x="506" y="138" width="218" height="108" rx="24" fill="url(#panel)" stroke="#2857ff" stroke-opacity="0.18" />
    <rect x="742" y="138" width="218" height="108" rx="24" fill="url(#panel)" stroke="#2857ff" stroke-opacity="0.18" />
  </g>

  <g fill="#f8fafc" font-family="Arial, sans-serif" font-weight="700">
    <text x="74" y="194" font-size="34">410.47M</text>
    <text x="74" y="222" font-size="18">Total Revenue</text>
    <text x="310" y="194" font-size="34">1.40K</text>
    <text x="310" y="222" font-size="18">Avg Orders</text>
    <text x="546" y="194" font-size="34">293K</text>
    <text x="546" y="222" font-size="18">Total Orders</text>
    <text x="782" y="194" font-size="34">87K</text>
    <text x="782" y="222" font-size="18">Unique Users</text>
  </g>

  <rect x="978" y="48" width="188" height="198" rx="26" fill="#07192a" stroke="#12395d" />
  <text x="1072" y="82" fill="#f8fafc" font-family="Arial, sans-serif" font-size="19" font-weight="700" text-anchor="middle">Quarter</text>
  <g fill="#f8fafc" font-family="Arial, sans-serif" font-size="18">
    <rect x="996" y="96" width="72" height="46" rx="12" fill="#f1f5f9" />
    <rect x="1078" y="96" width="72" height="46" rx="12" fill="#f1f5f9" />
    <rect x="996" y="152" width="72" height="46" rx="12" fill="#f1f5f9" />
    <rect x="1078" y="152" width="72" height="46" rx="12" fill="#f1f5f9" />
    <text x="1032" y="126" fill="#334155" text-anchor="middle">Q1</text>
    <text x="1114" y="126" fill="#334155" text-anchor="middle">Q2</text>
    <text x="1032" y="182" fill="#334155" text-anchor="middle">Q3</text>
    <text x="1114" y="182" fill="#334155" text-anchor="middle">Q4</text>
  </g>

  <rect x="34" y="264" width="364" height="196" rx="28" fill="url(#panel)" stroke="#2857ff" stroke-opacity="0.2" />
  <rect x="418" y="264" width="260" height="196" rx="28" fill="url(#panel)" stroke="#2857ff" stroke-opacity="0.2" />
  <rect x="698" y="264" width="262" height="196" rx="28" fill="url(#panel)" stroke="#2857ff" stroke-opacity="0.2" />
  <rect x="978" y="264" width="188" height="268" rx="28" fill="#07192a" stroke="#12395d" />

  <text x="216" y="294" fill="#f8fafc" font-family="Arial, sans-serif" font-size="20" font-weight="700" text-anchor="middle">Total Revenue by Name</text>
  <g fill="url(#accent)">
    <rect x="110" y="334" width="178" height="28" rx="8" />
    <rect x="110" y="374" width="96" height="28" rx="8" />
    <rect x="110" y="414" width="82" height="28" rx="8" />
    <rect x="110" y="454" width="74" height="28" rx="8" />
  </g>
  <g fill="#94a3b8" font-family="Arial, sans-serif" font-size="14">
    <text x="38" y="353">John Cena</text>
    <text x="38" y="393">Michael Smith</text>
    <text x="38" y="433">Michael John</text>
    <text x="38" y="473">Michael Jones</text>
  </g>

  <text x="548" y="294" fill="#f8fafc" font-family="Arial, sans-serif" font-size="20" font-weight="700" text-anchor="middle">Revenue and Orders by Month</text>
  <g fill="url(#accent)">
    <rect x="460" y="388" width="22" height="66" rx="6" />
    <rect x="492" y="400" width="22" height="54" rx="6" />
    <rect x="524" y="412" width="22" height="42" rx="6" />
    <rect x="556" y="418" width="22" height="36" rx="6" />
    <rect x="588" y="430" width="22" height="24" rx="6" />
    <rect x="620" y="432" width="22" height="22" rx="6" />
  </g>
  <polyline points="470,370 502,378 534,386 566,394 598,412 630,412" fill="none" stroke="#2b3bd5" stroke-width="6" stroke-linecap="round" stroke-linejoin="round" />

  <text x="829" y="294" fill="#f8fafc" font-family="Arial, sans-serif" font-size="20" font-weight="700" text-anchor="middle">Revenue by Product Brand</text>
  <g fill="url(#accent)">
    <rect x="778" y="334" width="126" height="28" rx="8" />
    <rect x="778" y="374" width="126" height="28" rx="8" />
    <rect x="778" y="414" width="126" height="28" rx="8" />
    <rect x="778" y="454" width="126" height="28" rx="8" />
  </g>
  <g fill="#94a3b8" font-family="Arial, sans-serif" font-size="14">
    <text x="726" y="353">Pepsi</text>
    <text x="720" y="393">Samsung</text>
    <text x="728" y="433">Sony</text>
    <text x="700" y="473">Coca-Cola</text>
  </g>

  <text x="1072" y="294" fill="#f8fafc" font-family="Arial, sans-serif" font-size="18" font-weight="700" text-anchor="middle">Country</text>
  <g fill="#f8fafc" font-family="Arial, sans-serif" font-size="12">
    <rect x="994" y="314" width="72" height="52" rx="10" fill="#f8fafc" />
    <rect x="1078" y="314" width="72" height="52" rx="10" fill="#f8fafc" />
    <rect x="994" y="378" width="72" height="52" rx="10" fill="#f8fafc" />
    <rect x="1078" y="378" width="72" height="52" rx="10" fill="#f8fafc" />
    <text x="1030" y="345" fill="#334155" text-anchor="middle">Australia</text>
    <text x="1114" y="345" fill="#334155" text-anchor="middle">Canada</text>
    <text x="1030" y="409" fill="#334155" text-anchor="middle">UK</text>
    <text x="1114" y="409" fill="#334155" text-anchor="middle">USA</text>
  </g>

  <rect x="34" y="482" width="364" height="194" rx="28" fill="url(#panel)" stroke="#2857ff" stroke-opacity="0.2" />
  <rect x="418" y="482" width="260" height="194" rx="28" fill="url(#panel)" stroke="#2857ff" stroke-opacity="0.2" />
  <rect x="698" y="482" width="262" height="194" rx="28" fill="url(#panel)" stroke="#2857ff" stroke-opacity="0.2" />
  <rect x="978" y="550" width="188" height="126" rx="28" fill="url(#panel)" stroke="#2857ff" stroke-opacity="0.2" />

  <text x="216" y="512" fill="#f8fafc" font-family="Arial, sans-serif" font-size="20" font-weight="700" text-anchor="middle">Revenue by Segment</text>
  <circle cx="206" cy="586" r="70" fill="none" stroke="#2488e8" stroke-width="36" stroke-dasharray="190 310" transform="rotate(-90 206 586)" />
  <circle cx="206" cy="586" r="70" fill="none" stroke="#2334b8" stroke-width="36" stroke-dasharray="116 384" stroke-dashoffset="-198" transform="rotate(-90 206 586)" />
  <circle cx="206" cy="586" r="70" fill="none" stroke="#f27932" stroke-width="36" stroke-dasharray="104 396" stroke-dashoffset="-318" transform="rotate(-90 206 586)" />

  <text x="548" y="512" fill="#f8fafc" font-family="Arial, sans-serif" font-size="20" font-weight="700" text-anchor="middle">Revenue by Category</text>
  <g fill="url(#accent)">
    <rect x="494" y="548" width="154" height="26" rx="8" />
    <rect x="494" y="586" width="154" height="26" rx="8" />
    <rect x="494" y="624" width="154" height="26" rx="8" />
  </g>
  <g fill="#94a3b8" font-family="Arial, sans-serif" font-size="14">
    <text x="430" y="566">Electronics</text>
    <text x="448" y="604">Grocery</text>
    <text x="444" y="642">Clothing</text>
  </g>

  <text x="829" y="512" fill="#f8fafc" font-family="Arial, sans-serif" font-size="20" font-weight="700" text-anchor="middle">Revenue by Product Type</text>
  <g fill="url(#accent)">
    <rect x="758" y="556" width="166" height="26" rx="8" />
    <rect x="758" y="596" width="166" height="26" rx="8" />
    <rect x="758" y="636" width="166" height="26" rx="8" />
  </g>
  <g fill="#94a3b8" font-family="Arial, sans-serif" font-size="14">
    <text x="710" y="574">Water</text>
    <text x="706" y="614">Fiction</text>
    <text x="702" y="654">Thriller</text>
  </g>

  <text x="1072" y="580" fill="#f8fafc" font-family="Arial, sans-serif" font-size="18" font-weight="700" text-anchor="middle">Orders by Age Group</text>
  <circle cx="1072" cy="626" r="44" fill="none" stroke="#2488e8" stroke-width="20" stroke-dasharray="90 186" transform="rotate(-90 1072 626)" />
  <circle cx="1072" cy="626" r="44" fill="none" stroke="#2334b8" stroke-width="20" stroke-dasharray="60 216" stroke-dashoffset="-95" transform="rotate(-90 1072 626)" />
  <circle cx="1072" cy="626" r="44" fill="none" stroke="#f27932" stroke-width="20" stroke-dasharray="44 232" stroke-dashoffset="-160" transform="rotate(-90 1072 626)" />
  <circle cx="1072" cy="626" r="44" fill="none" stroke="#a21caf" stroke-width="20" stroke-dasharray="30 246" stroke-dashoffset="-208" transform="rotate(-90 1072 626)" />
</svg>
